<svg xmlns="http://www.w3.org/2000/svg" xmlns:xlink="http://www.w3.org/1999/xlink" version="1.1" x="0px" y="0px" viewBox="0 0 95 118.75" enable-background="new 0 0 95 95" xml:space="preserve"><path d="M47.499,90.395c23.653,0,42.896-19.243,42.896-42.895S71.152,4.605,47.499,4.605C23.847,4.605,4.605,23.848,4.605,47.5  S23.847,90.395,47.499,90.395z M23.008,76.91c0.767-9.483,7.658-13.066,24.492-13.066c16.833,0,23.726,3.582,24.492,13.065  c-6.644,5.542-15.184,8.884-24.493,8.884C38.191,85.793,29.651,82.452,23.008,76.91z M33.828,45.571  c0-7.539,6.133-13.671,13.672-13.671s13.672,6.133,13.672,13.671c0,7.539-6.133,13.672-13.672,13.672S33.828,53.11,33.828,45.571z   M47.499,9.207c21.115,0,38.295,17.178,38.295,38.293c0,9.815-3.716,18.775-9.809,25.559c-2.252-8.819-9.808-12.013-17.177-13.163  c4.234-3.349,6.964-8.52,6.964-14.325c0-10.075-8.197-18.272-18.272-18.272s-18.272,8.197-18.272,18.272  c0,5.806,2.729,10.976,6.964,14.325c-7.369,1.15-14.924,4.343-17.177,13.164c-6.093-6.784-9.809-15.745-9.809-25.56  C9.206,26.385,26.385,9.207,47.499,9.207z"/><text x="0" y="110" fill="#000000" font-size="5px" font-weight="bold" font-family="'Helvetica Neue', Helvetica, Arial-Unicode, Arial, Sans-serif">Created by Guilherme Furtado</text><text x="0" y="115" fill="#000000" font-size="5px" font-weight="bold" font-family="'Helvetica Neue', Helvetica, Arial-Unicode, Arial, Sans-serif">from the Noun Project</text></svg>